<svg xmlns="http://www.w3.org/2000/svg" viewBox="0 0 720 180" width="720" height="180" role="img" aria-label="알터네이터의 핵심 역할: 전력 생성과 전압 조절 프로세스">
  <defs>
    <marker id="ah" viewBox="0 0 10 10" refX="9" refY="5" markerWidth="7" markerHeight="7" orient="auto-start-reverse">
      <path class="ahp" d="M 0 0 L 10 5 L 0 10 z"/>
    </marker>
  </defs>
  <style>
    .bg  { fill: #f8fafc; }
    .box { fill: #ffffff; stroke: #cbd5e1; stroke-width: 1.5; }
    .nd  { fill: #0f172a; font: 600 13px system-ui, -apple-system, 'Apple SD Gothic Neo', sans-serif; }
    .ttl { fill: #0f172a; font: 600 15px system-ui, -apple-system, 'Apple SD Gothic Neo', sans-serif; }
    .arw { stroke: #2563eb; stroke-width: 2; }
    .ahp { fill: #2563eb; }
    @media (prefers-color-scheme: dark) {
      .bg  { fill: #0f172a; }
      .box { fill: #1e293b; stroke: #334155; }
      .nd  { fill: #f1f5f9; }
      .ttl { fill: #f1f5f9; }
      .arw { stroke: #60a5fa; }
      .ahp { fill: #60a5fa; }
    }
  </style>
  <rect class="bg" width="720" height="180" rx="10"/>
  <text class="ttl" x="24" y="30">알터네이터의 핵심 역할: 전력 생성과 전압 조절 프로세스</text>
  <line class="arw" x1="235" y1="70.5" x2="251" y2="70.5" marker-end="url(#ah)"/>
  <line class="arw" x1="467" y1="70.5" x2="483" y2="70.5" marker-end="url(#ah)"/>
  <line class="arw" x1="591" y1="95" x2="591" y2="116" marker-end="url(#ah)"/>
  <line class="arw" x1="483" y1="141.5" x2="467" y2="141.5" marker-end="url(#ah)"/>
  <line class="arw" x1="251" y1="141.5" x2="235" y2="141.5" marker-end="url(#ah)"/>
  <rect class="box" x="24" y="50" width="206" height="41" rx="8"/>
  <text class="nd" text-anchor="middle">
    <tspan x="127" y="75.5">엔진 회전력 (크랭크축)</tspan>
  </text>
  <rect class="box" x="256" y="50" width="206" height="41" rx="8"/>
  <text class="nd" text-anchor="middle">
    <tspan x="359" y="75.5">겉벨트 구동</tspan>
  </text>
  <rect class="box" x="488" y="50" width="206" height="41" rx="8"/>
  <text class="nd" text-anchor="middle">
    <tspan x="591" y="75.5">알터네이터 로터 회전</tspan>
  </text>
  <rect class="box" x="488" y="121" width="206" height="41" rx="8"/>
  <text class="nd" text-anchor="middle">
    <tspan x="591" y="146.5">스테이터 코일: AC 교류 발생</tspan>
  </text>
  <rect class="box" x="256" y="121" width="206" height="41" rx="8"/>
  <text class="nd" text-anchor="middle">
    <tspan x="359" y="146.5">다이오드 팩: DC 직류 변환</tspan>
  </text>
  <rect class="box" x="24" y="121" width="206" height="41" rx="8"/>
  <text class="nd" text-anchor="middle">
    <tspan x="127" y="146.5">IC 레귤레이터: 14.2V 제어</tspan>
  </text>
</svg>
