<svg xmlns="http://www.w3.org/2000/svg" viewBox="0 0 720 290" width="720" height="290" role="img" aria-label="차급 및 파워트레인별 정비 항목 비용 대조표">
  <style>
    .bg    { fill: #f8fafc; }
    .ttl   { fill: #0f172a; font: 600 15px system-ui, -apple-system, 'Apple SD Gothic Neo', sans-serif; }
    .lbl   { fill: #475569; font: 500 13px system-ui, -apple-system, 'Apple SD Gothic Neo', sans-serif; }
    .val   { fill: #0f172a; font: 600 12px system-ui, -apple-system, 'Apple SD Gothic Neo', sans-serif; }
    .track { fill: #e2e8f0; }
    .bar   { fill: #2563eb; }
    .range { fill: #2563eb; opacity: .32; }
    .note  { fill: #94a3b8; font: 400 11px system-ui, -apple-system, 'Apple SD Gothic Neo', sans-serif; }
    @media (prefers-color-scheme: dark) {
      .bg    { fill: #0f172a; }
      .ttl   { fill: #f1f5f9; }
      .lbl   { fill: #94a3b8; }
      .val   { fill: #f1f5f9; }
      .track { fill: #1e293b; }
      .bar   { fill: #60a5fa; }
      .range { fill: #60a5fa; opacity: .32; }
      .note  { fill: #64748b; }
    }
  </style>
  <rect class="bg" width="720" height="290" rx="10"/>
  <text class="ttl" x="24" y="30">차급 및 파워트레인별 정비 항목 비용 대조표</text>
  <text class="lbl" x="178" y="68" text-anchor="end">2.0 G2.0 점화플러그 …</text>
  <rect class="track" x="190" y="57" width="390" height="18" rx="4"/>
  <rect class="bar" x="190" y="57" width="138.7" height="18" rx="4"/>
  <text class="val" x="590" y="68">16만원</text>
  <text class="lbl" x="178" y="110" text-anchor="end">1.6T CVVD 가속 액추…</text>
  <rect class="track" x="190" y="99" width="390" height="18" rx="4"/>
  <rect class="bar" x="190" y="99" width="312.0" height="18" rx="4"/>
  <text class="val" x="590" y="110">36만원</text>
  <text class="lbl" x="178" y="152" text-anchor="end">드라이브 샤프트</text>
  <rect class="track" x="190" y="141" width="390" height="18" rx="4"/>
  <rect class="bar" x="190" y="141" width="234.0" height="18" rx="4"/>
  <text class="val" x="590" y="152">27만원</text>
  <text class="lbl" x="178" y="194" text-anchor="end">전륜 쇼크업소버</text>
  <rect class="track" x="190" y="183" width="390" height="18" rx="4"/>
  <rect class="bar" x="190" y="183" width="390.0" height="18" rx="4"/>
  <text class="val" x="590" y="194">45만원</text>
  <text class="lbl" x="178" y="236" text-anchor="end">전자식 기어 조작부 모듈</text>
  <rect class="track" x="190" y="225" width="390" height="18" rx="4"/>
  <rect class="bar" x="190" y="225" width="260.0" height="18" rx="4"/>
  <text class="val" x="590" y="236">30만원</text>
  <text class="note" x="24" y="280">2026년 9월 기준 · 지역·정비소 유형·차종에 따라 달라지는 참고 범위입니다.</text>
</svg>
